<svg width="540" height="423" viewBox="0 0 540 423" fill="none" xmlns="http://www.w3.org/2000/svg">
    <rect width="540" height="423" fill="#D8D8D8"/>
    <rect width="540" height="423" fill="#0D47A1"/>
    <path fill-rule="evenodd" clip-rule="evenodd" d="M135.423 273.325V276.968H88V273.325C92.682 272.998 95.8227 272.005 97.422 270.347C99.0213 268.689 99.8209 265.314 99.8209 260.223V196.815C99.8209 191.397 99.0097 187.976 97.3872 186.551C95.7647 185.126 92.6357 184.157 88 183.643V180H133.823C145.969 180 155.205 181.985 161.533 185.955C167.861 189.926 171.025 196.745 171.025 206.414C171.025 211.132 169.785 215.557 167.305 219.691C164.824 223.825 160.733 227.153 155.032 229.675C150.72 231.45 146.409 232.524 142.098 232.898C137.787 233.272 131.39 233.459 122.907 233.459V260.223C122.907 265.501 123.787 268.958 125.549 270.592C127.31 272.227 130.602 273.138 135.423 273.325ZM122.907 189.949V228.484C131.39 228.344 137.045 227.363 139.873 225.541C144.37 222.645 146.618 216.41 146.618 206.834C146.618 200.295 145.529 195.017 143.35 191C141.171 186.983 136.999 184.975 130.833 184.975C128.006 184.975 125.978 185.313 124.749 185.99C123.521 186.668 122.907 187.987 122.907 189.949ZM208.239 279C213.107 279 217.418 278.089 221.173 276.268C226.967 273.418 232.067 268.35 236.471 261.064L233.202 259.032C230.514 262.021 228.265 264.146 226.458 265.408C223.491 267.51 220.338 268.561 217.001 268.561C210.001 268.561 205.11 264.614 202.329 256.72C200.799 252.516 199.872 247.541 199.548 241.796H235.845C235.845 240.488 235.682 238.597 235.358 236.121C234.709 230.843 233.55 226.546 231.881 223.229C229.656 218.839 226.481 215.406 222.355 212.93C218.229 210.454 213.825 209.217 209.143 209.217C200.938 209.217 193.927 212.264 188.109 218.36C182.291 224.455 179.382 233.015 179.382 244.038C179.382 256.229 182.442 265.104 188.561 270.662C194.68 276.221 201.24 279 208.239 279ZM199.2 236.471H218.322C218.229 228.017 217.58 222.108 216.375 218.745C215.17 215.382 212.759 213.701 209.143 213.701C205.435 213.701 202.897 215.639 201.529 219.516C200.162 223.393 199.385 229.045 199.2 236.471ZM296.423 279C298.787 279 301.036 278.58 303.168 277.739C306.552 276.431 309.635 274.142 312.416 270.873L310.261 267.86C309.334 268.794 308.65 269.366 308.209 269.576C307.769 269.787 307.271 269.892 306.714 269.892C306.065 269.892 305.474 269.53 304.941 268.806C304.408 268.082 304.142 267.206 304.142 266.178V231.427C304.142 222.926 301.453 217.087 296.076 213.911C290.652 210.781 283.907 209.217 275.841 209.217C268.331 209.217 262.003 210.828 256.858 214.051C251.712 217.274 249.14 221.641 249.14 227.153C249.14 230.236 250.101 232.594 252.025 234.229C253.949 235.864 256.278 236.682 259.014 236.682C261.378 236.682 263.452 235.946 265.237 234.475C267.022 233.003 267.914 230.913 267.914 228.204C267.914 227.13 267.717 226.114 267.323 225.156C266.929 224.199 266.407 223.323 265.758 222.529L264.924 221.548C264.553 221.127 264.275 220.73 264.09 220.357C263.904 219.983 263.811 219.516 263.811 218.955C263.811 217.507 264.634 216.305 266.28 215.347C267.926 214.39 270.023 213.911 272.573 213.911C277.116 213.911 280.28 214.927 282.064 216.959C283.849 218.99 284.741 222.132 284.741 226.382V236.822C271.576 240.652 261.911 244.459 255.745 248.242C249.58 252.025 246.497 257.14 246.497 263.586C246.497 268.864 248.189 272.753 251.573 275.252C254.957 277.751 258.596 279 262.49 279C265.411 279 268.378 278.486 271.391 277.459C276.351 275.824 280.801 273.021 284.741 269.051C285.251 271.807 286.063 273.885 287.175 275.287C289.122 277.762 292.205 279 296.423 279ZM269.339 266.354C270.753 267.965 272.341 268.771 274.103 268.771C276.42 268.771 278.576 268.07 280.569 266.669C281.682 265.828 283.003 264.52 284.533 262.745V241.796C280.732 242.73 277.394 244.202 274.52 246.21C269.652 249.62 267.219 253.964 267.219 259.242C267.219 262.372 267.926 264.742 269.339 266.354ZM353.803 273.535C350.558 273.115 348.542 272.367 347.754 271.293C346.966 270.219 346.572 268.07 346.572 264.847V248.592L349.701 245.089L363.19 264.357C364.72 266.552 365.682 268.058 366.076 268.876C366.47 269.693 366.667 270.335 366.667 270.803C366.667 271.69 366.192 272.344 365.242 272.764C364.291 273.185 362.796 273.442 360.757 273.535V276.968H393.994V273.535C393.16 273.395 392.488 273.196 391.978 272.939C391.468 272.683 390.935 272.157 390.378 271.363L362.843 233.178L373.899 221.898C376.773 219.002 379.74 216.947 382.799 215.732C384.514 215.079 386.832 214.565 389.753 214.191V210.898H359.227V214.191C362.286 214.471 364.454 214.845 365.728 215.312C367.003 215.779 367.641 216.737 367.641 218.185C367.641 218.745 367.409 219.504 366.945 220.462C366.482 221.419 365.717 222.435 364.651 223.51L346.572 241.796V180H319.87V183.503C322.512 184.11 324.32 184.881 325.294 185.815C326.267 186.749 326.754 188.735 326.754 191.771V264.847C326.754 268.023 326.233 270.114 325.19 271.118C324.147 272.122 322.373 272.928 319.87 273.535V276.968H353.803V273.535ZM409.271 275.812C408.691 276.443 408.031 277.505 407.289 279H403.882V255.248H407.845C409.236 262.115 411.832 266.961 415.633 269.787C419.435 272.613 423.328 274.025 427.315 274.025C430.977 274.025 433.666 273.196 435.381 271.538C437.096 269.88 437.954 267.696 437.954 264.987C437.954 262.418 437.027 260.223 435.173 258.401C434.153 257.42 432.507 256.369 430.236 255.248L419.666 250.064C414.103 247.308 410.117 244.318 407.706 241.096C405.249 237.873 404.021 234.066 404.021 229.675C404.021 224.117 405.945 219.317 409.792 215.277C413.64 211.237 419.017 209.217 425.924 209.217C428.938 209.217 432.136 209.719 435.52 210.723C438.904 211.727 441.013 212.229 441.848 212.229C443.007 212.229 443.83 211.984 444.316 211.494C444.803 211.003 445.209 210.314 445.533 209.427H448.662V230.166H445.047C443.702 225.308 441.5 221.408 438.441 218.465C435.381 215.522 431.812 214.051 427.732 214.051C424.58 214.051 422.227 214.938 420.675 216.713C419.122 218.488 418.345 220.403 418.345 222.459C418.345 224.14 419.04 225.822 420.431 227.503C421.776 229.231 424.325 231.006 428.08 232.828L435.868 236.611C440.689 238.947 444.212 241.212 446.437 243.408C450.146 247.144 452 251.745 452 257.21C452 262.535 450.088 267.498 446.263 272.099C442.439 276.7 436.702 279 429.053 279C427.153 279 425.241 278.801 423.317 278.404C421.393 278.007 419.017 277.318 416.19 276.338L413.756 275.497C412.875 275.17 412.33 274.983 412.122 274.936C411.913 274.89 411.647 274.866 411.322 274.866C410.534 274.866 409.85 275.182 409.271 275.812Z" fill="white"/>
    <path fill-rule="evenodd" clip-rule="evenodd" d="M212.608 195.79V197.851H184.024V195.79C187.157 195.79 189.238 195.294 190.27 194.304C191.301 193.313 191.816 191.338 191.816 188.379V145.655C187.901 145.761 184.899 146.382 182.81 147.518C178.973 149.632 176.806 153.582 176.31 159.368H174L174.078 143H222.358L222.437 159.368H220.127C219.369 153.529 217.203 149.579 213.627 147.518C211.616 146.382 208.614 145.761 204.62 145.655V188.379C204.62 191.364 205.136 193.346 206.167 194.323C207.198 195.301 209.345 195.79 212.608 195.79ZM246.048 195.909V197.851H226.744V195.909C228.206 195.724 229.283 195.321 229.974 194.7C230.666 194.079 231.012 192.844 231.012 190.994V149.658C231.012 148.046 230.725 146.917 230.151 146.27C229.576 145.622 228.441 145.193 226.744 144.982V143H242.25V165.828C243.895 163.82 245.624 162.268 247.438 161.171C249.253 160.075 251.295 159.527 253.566 159.527C256.647 159.527 259.192 160.431 261.202 162.241C263.212 164.051 264.217 167.136 264.217 171.495V190.994C264.217 192.817 264.524 194.013 265.137 194.581C265.751 195.149 266.775 195.592 268.211 195.909V197.851H249.377V195.909C250.812 195.618 251.791 195.222 252.313 194.72C252.835 194.218 253.096 193.082 253.096 191.311V171.654C253.096 169.804 252.914 168.417 252.548 167.493C251.922 165.828 250.682 164.996 248.828 164.996C247.445 164.996 246.016 165.643 244.541 166.938C243.066 168.232 242.328 169.117 242.328 169.593V191.311C242.328 193.082 242.589 194.218 243.111 194.72C243.634 195.222 244.612 195.618 246.048 195.909ZM288.102 199C290.843 199 293.271 198.485 295.386 197.454C298.649 195.843 301.52 192.976 304 188.854L302.16 187.705C300.646 189.396 299.38 190.598 298.361 191.311C296.691 192.5 294.916 193.095 293.036 193.095C289.094 193.095 286.34 190.862 284.774 186.397C283.913 184.019 283.391 181.205 283.208 177.955H303.648C303.648 177.216 303.556 176.146 303.373 174.745C303.008 171.76 302.355 169.329 301.416 167.453C300.163 164.969 298.374 163.027 296.051 161.627C293.728 160.227 291.248 159.527 288.611 159.527C283.991 159.527 280.043 161.251 276.767 164.699C273.49 168.146 271.852 172.988 271.852 179.224C271.852 186.12 273.575 191.14 277.021 194.284C280.467 197.428 284.161 199 288.102 199ZM283.012 174.943H293.78C293.728 170.161 293.362 166.819 292.684 164.916C292.005 163.014 290.648 162.063 288.611 162.063C286.523 162.063 285.094 163.159 284.324 165.352C283.554 167.545 283.116 170.742 283.012 174.943Z" fill="white"/>
</svg>